HIERARCHY
ROOT RootJoint
{
    OFFSET   0.000000   0.000000   0.000000
    CHANNELS 6 Xposition Yposition Zposition Xrotation Yrotation Zrotation
    JOINT pelvis_lowerback
    {
        OFFSET   0.000000   0.093605   0.000000
        CHANNELS 3 Xrotation Yrotation Zrotation
        JOINT lowerback_torso
        {
            OFFSET   0.000000   0.100000   0.000000
            CHANNELS 3 Xrotation Yrotation Zrotation
            JOINT torso_head
            {
                OFFSET   0.000000   0.282350   0.000000
                CHANNELS 3 Xrotation Yrotation Zrotation
                End Site
                {
                    OFFSET   0.000000   0.192650   0.000000
                }
            }
            JOINT rTorso_Clavicle
            {
                OFFSET  -0.001000   0.157500   0.000000
                CHANNELS 3 Xrotation Yrotation Zrotation
                JOINT rShoulder
                {
                    OFFSET  -0.117647   0.000000   0.000000
                    CHANNELS 3 Xrotation Yrotation Zrotation
                    JOINT rElbow
                    {
                        OFFSET  -0.245000   0.000000   0.000000
                        CHANNELS 3 Xrotation Yrotation Zrotation
                        JOINT rWrist
                        {
                            OFFSET  -0.240000   0.000000   0.000000
                            CHANNELS 3 Xrotation Yrotation Zrotation
                            End Site
                            {
                                OFFSET  -0.116353  -0.002500   0.000000
                            }
                        }
                    }
                }
            }
            JOINT lTorso_Clavicle
            {
                OFFSET   0.001000   0.157500   0.000000
                CHANNELS 3 Xrotation Yrotation Zrotation
                JOINT lShoulder
                {
                    OFFSET   0.117647   0.000000   0.000000
                    CHANNELS 3 Xrotation Yrotation Zrotation
                    JOINT lElbow
                    {
                        OFFSET   0.245000   0.000000   0.000000
                        CHANNELS 3 Xrotation Yrotation Zrotation
                        JOINT lWrist
                        {
                            OFFSET   0.240000   0.000000   0.000000
                            CHANNELS 3 Xrotation Yrotation Zrotation
                            End Site
                            {
                                OFFSET   0.116353  -0.002500   0.000000
                            }
                        }
                    }
                }
            }
        }
    }
    JOINT rHip
    {
        OFFSET  -0.100000  -0.051395   0.000000
        CHANNELS 3 Xrotation Yrotation Zrotation
        JOINT rKnee
        {
            OFFSET   0.000000  -0.410000   0.000000
            CHANNELS 3 Xrotation Yrotation Zrotation
            JOINT rAnkle
            {
                OFFSET   0.000000  -0.390000   0.000000
                CHANNELS 3 Xrotation Yrotation Zrotation
                JOINT rToeJoint
                {
                    OFFSET   0.000000  -0.050000   0.130000
                    CHANNELS 3 Xrotation Yrotation Zrotation
                    End Site
                    {
                        OFFSET  -0.010000   0.002000   0.060000
                    }
                }
            }
        }
    }
    JOINT lHip
    {
        OFFSET   0.100000  -0.051395   0.000000
        CHANNELS 3 Xrotation Yrotation Zrotation
        JOINT lKnee
        {
            OFFSET   0.000000  -0.410000   0.000000
            CHANNELS 3 Xrotation Yrotation Zrotation
            JOINT lAnkle
            {
                OFFSET   0.000000  -0.390000   0.000000
                CHANNELS 3 Xrotation Yrotation Zrotation
                JOINT lToeJoint
                {
                    OFFSET   0.000000  -0.050000   0.130000
                    CHANNELS 3 Xrotation Yrotation Zrotation
                    End Site
                    {
                        OFFSET   0.010000   0.002000   0.060000
                    }
                }
            }
        }
    }
}
MOTION
Frames: 12
Frame Time:   0.008333
 -2.376418   0.906628   3.860186  24.454592 -10.010398   5.234279  34.049349  -1.164250   1.813424   1.094205  -0.660656  -0.122498   1.589382  -0.431260  -3.272863  -4.708103  20.244107  -5.456613  -9.224001  23.844539  31.008297  -0.000039  37.016822  -0.000004   2.606126   4.770694  -3.483744  -7.161898 -22.375864   4.651698  -1.611470 -27.048294 -22.498877  -0.000030 -35.570275  -0.000103   7.974782  -8.173563   2.447307 -36.456580  -2.188761  -5.159372   7.874575   0.000010  -0.000013   4.954457  -0.307370   3.173003  -0.685643   0.000000  -0.000000 -31.955790   4.238845   7.287058   9.964770   0.000006  -0.000013  -1.595011   5.861748  -2.436618   0.274492   0.000000  -0.000000
 -2.376504   0.906631   3.860119  24.473802 -10.000679   5.229008  34.010354  -1.157668   1.791673   1.103581  -0.667186  -0.142817   1.623871  -0.438718  -3.283222  -4.708810  20.240420  -5.492855  -9.259030  23.832570  30.993363  -0.000063  37.053725  -0.000008   2.581382   4.746209  -3.436549  -7.178028 -22.361017   4.657746  -1.637782 -27.063485 -22.512453  -0.000046 -35.629628  -0.000130   7.955924  -8.163145   2.388413 -36.460610  -2.191852  -5.148199   7.838607   0.000010  -0.000014   4.975810  -0.318752   3.168043  -0.685876   0.000000  -0.000000 -31.968589   4.247757   7.298566   9.931491   0.000006  -0.000016  -1.570792   5.841537  -2.447132   0.278332   0.000000  -0.000000
 -2.376584   0.906635   3.860051  24.493311  -9.991891   5.224465  33.971735  -1.150791   1.769665   1.109496  -0.672840  -0.164151   1.658039  -0.445910  -3.293520  -4.711755  20.238913  -5.529353  -9.293420  23.823391  30.977760  -0.000082  37.089808  -0.000011   2.558232   4.730468  -3.392588  -7.196541 -22.348531   4.666233  -1.664300 -27.079424 -22.522227  -0.000064 -35.687015  -0.000151   7.938316  -8.163682   2.338984 -36.464478  -2.194578  -5.137414   7.801148   0.000010  -0.000015   4.998143  -0.329295   3.162962  -0.686025   0.000000  -0.000000 -31.981451   4.256518   7.309438   9.898339   0.000007  -0.000019  -1.546575   5.822700  -2.457120   0.281239   0.000000  -0.000000
 -2.376660   0.906638   3.859987  24.511867  -9.983228   5.219927  33.933978  -1.144191   1.747875   1.112348  -0.677762  -0.185134   1.690254  -0.452646  -3.303414  -4.716159  20.239247  -5.564823  -9.326784  23.816076  30.962041  -0.000097  37.124136  -0.000013   2.536377   4.719467  -3.353395  -7.215799 -22.338306   4.675818  -1.690168 -27.095217 -22.529549  -0.000080 -35.741127  -0.000166   7.921638  -8.167899   2.297422 -36.467879  -2.197385  -5.127204   7.765034   0.000010  -0.000015   5.019553  -0.339492   3.158086  -0.686137   0.000000  -0.000000 -31.993742   4.264324   7.319697   9.866818   0.000007  -0.000020  -1.523431   5.804938  -2.466446   0.283440   0.000000  -0.000000
 -2.376730   0.906641   3.859930  24.529031  -9.974590   5.215228  33.896977  -1.137916   1.726549   1.112752  -0.682048  -0.205433   1.720338  -0.458939  -3.312801  -4.721376  20.240834  -5.598771  -9.358817  23.810151  30.946674  -0.000107  37.156611  -0.000014   2.515625   4.711407  -3.318237  -7.234988 -22.329726   4.685778  -1.715008 -27.110538 -22.535278  -0.000094 -35.791919  -0.000174   7.905750  -8.173433   2.261364 -36.470480  -2.200344  -5.117628   7.730901   0.000010  -0.000015   5.039510  -0.349412   3.153531  -0.686225   0.000000  -0.000000 -32.005032   4.271194   7.329352   9.837230   0.000006  -0.000020  -1.501709   5.788071  -2.475183   0.285066   0.000000  -0.000000
 -2.376795   0.906645   3.859879  24.544667  -9.966010   5.210354  33.860637  -1.131949   1.705815   1.111195  -0.685745  -0.224940   1.748333  -0.464815  -3.321660  -4.726971  20.243212  -5.630998  -9.389333  23.805275  30.931915  -0.000113  37.187237  -0.000013   2.495866   4.705409  -3.286217  -7.253656 -22.322295   4.695740  -1.738620 -27.125186 -22.539920  -0.000104 -35.839495  -0.000178   7.890576  -8.179488   2.229234 -36.472114  -2.203441  -5.108722   7.698851   0.000009  -0.000014   5.057876  -0.359046   3.149307  -0.686280   0.000000  -0.000000 -32.015115   4.277234   7.338383   9.809606   0.000006  -0.000020  -1.481525   5.772030  -2.483385   0.286224   0.000000  -0.000000
 -2.376854   0.906649   3.859837  24.558768  -9.957528   5.205343  33.824927  -1.126267   1.685749   1.108044  -0.688893  -0.243607   1.774337  -0.470298  -3.329998  -4.732670  20.246052  -5.661442  -9.418239  23.801193  30.917889  -0.000116  37.216053  -0.000013   2.477020   4.700914  -3.256663  -7.271562 -22.315652   4.705512  -1.760914 -27.139033 -22.543775  -0.000110 -35.883994  -0.000179   7.876064  -8.185681   2.200044 -36.472735  -2.206639  -5.100510   7.668833   0.000009  -0.000014   5.074657  -0.368375   3.145390  -0.686292   0.000000  -0.000000 -32.023934   4.282547   7.346765   9.783899   0.000006  -0.000019  -1.462892   5.756774  -2.491100   0.286998   0.000000  -0.000000
 -2.376919   0.906656   3.859813  24.553429  -9.954970   5.200498  33.809618  -1.117098   1.664101   1.106264  -0.691944  -0.265879   1.802454  -0.475136  -3.339774  -4.739531  20.240091  -5.697568  -9.463206  23.789569  30.923314  -0.000151  37.278626  -0.000003   2.464178   4.682941  -3.219099  -7.281331 -22.310191   4.723830  -1.786754 -27.144058 -22.551973  -0.000126 -35.950124  -0.000193   7.860539  -8.181899   2.183058 -36.461679  -2.210508  -5.094250   7.657378   0.000007  -0.000011   5.081599  -0.370643   3.148384  -0.688055   0.000000  -0.000000 -32.011420   4.286029   7.353948   9.763274   0.000005  -0.000017  -1.449757   5.748843  -2.500570   0.287230   0.000000  -0.000000
 -2.376992   0.906664   3.859800  24.544730  -9.953196   5.194812  33.794209  -1.107764   1.643534   1.105741  -0.694134  -0.287925   1.830019  -0.479647  -3.349246  -4.746544  20.234338  -5.731307  -9.506022  23.779841  30.929006  -0.000176  37.339038   0.000004   2.452295   4.678136  -3.184099  -7.289713 -22.304352   4.740425  -1.810620 -27.148876 -22.560531  -0.000135 -36.012714  -0.000202   7.845874  -8.184508   2.167462 -36.448863  -2.214551  -5.087405   7.651196   0.000006  -0.000009   5.085085  -0.372384   3.152324  -0.690114   0.000000  -0.000000 -31.996131   4.289197   7.361969   9.746086   0.000005  -0.000015  -1.439568   5.741386  -2.509252   0.287481   0.000000  -0.000000
 -2.377069   0.906671   3.859794  24.535105  -9.951657   5.188555  33.777922  -1.098530   1.623968   1.104563  -0.695470  -0.309085   1.855788  -0.483858  -3.358116  -4.753272  20.229355  -5.762815  -9.546264  23.771244  30.934469  -0.000191  37.395827   0.000010   2.441123   4.677621  -3.150801  -7.296953 -22.298471   4.755386  -1.832625 -27.153280 -22.569162  -0.000140 -36.071191  -0.000205   7.831866  -8.188587   2.151456 -36.435402  -2.218769  -5.079949   7.646970   0.000005  -0.000007   5.087006  -0.374080   3.156559  -0.692299   0.000000  -0.000000 -31.980098   4.291972   7.370659   9.730561   0.000005  -0.000013  -1.430990   5.734193  -2.517121   0.287777   0.000000  -0.000000
 -2.377150   0.906679   3.859794  24.525226  -9.950254   5.181960  33.760874  -1.089484   1.605344   1.102357  -0.696093  -0.329245   1.879653  -0.487778  -3.366387  -4.759695  20.225014  -5.792328  -9.584003  23.763511  30.939587  -0.000199  37.449004   0.000015   2.430501   4.678592  -3.119050  -7.303330 -22.292599   4.769094  -1.852943 -27.157221 -22.577565  -0.000142 -36.125726  -0.000204   7.818433  -8.192671   2.135230 -36.421727  -2.223100  -5.072063   7.643797   0.000004  -0.000006   5.087976  -0.375763   3.160898  -0.694542   0.000001   0.000000 -31.963889   4.294386   7.379780   9.716127   0.000005  -0.000011  -1.423525   5.727285  -2.524248   0.288119   0.000000  -0.000000
 -2.377232   0.906686   3.859798  24.515322  -9.948963   5.175182  33.743278  -1.080691   1.587644   1.099149  -0.696142  -0.348379   1.901733  -0.491426  -3.374101  -4.765826  20.221175  -5.820027  -9.619360  23.756483  30.944309  -0.000201  37.498736   0.000018   2.420363   4.680205  -3.088855  -7.309063 -22.286751   4.781819  -1.871739 -27.160693 -22.585544  -0.000141 -36.176553  -0.000199   7.805542  -8.196347   2.119193 -36.408049  -2.227482  -5.063912   7.641357   0.000003  -0.000005   5.088263  -0.377418   3.165250  -0.696804   0.000001   0.000000 -31.947747   4.296491   7.389141   9.702600   0.000004  -0.000010  -1.416949   5.720679  -2.530714   0.288498   0.000000  -0.000000
